ply
format ascii 1.0
element vertex 500
property float x
property float y
property float z
property uchar red
property uchar green
property uchar blue
property uchar alpha
end_header
-0.013234 0.011982 0.023574 0 0 0 255
0.015492 0.026641 0.006071 0 0 0 255
-0.016601 0.006329 0.023686 0 0 0 255
0.037243 -0.003130 0.000593 0 0 0 255
-0.006451 -0.020282 0.018893 0 0 0 255
-0.018454 0.028755 0.002687 0 0 0 255
-0.026789 0.027613 0.000206 0 0 0 255
-0.014435 -0.035416 0.000271 0 0 0 255
-0.002142 0.023949 0.014995 0 0 0 255
-0.006743 0.037705 0.000253 0 0 0 255
0.037604 0.009166 0.000149 0 0 0 255
-0.006258 0.012252 0.028578 0 0 0 255
-0.024698 -0.011244 0.010709 0 0 0 255
0.028934 0.022503 0.000944 0 0 0 255
-0.020264 -0.022583 0.006627 0 0 0 255
0.031468 0.020313 0.000558 0 0 0 255
0.028794 0.015604 0.003994 0 0 0 255
0.031304 0.009431 0.004051 0 0 0 255
-0.019806 -0.005089 0.020057 0 0 0 255
0.014101 0.005760 0.026872 0 0 0 255
0.023015 0.006853 0.015037 0 0 0 255
0.035555 -0.007373 0.001138 0 0 0 255
0.011337 0.033265 0.001912 0 0 0 255
0.008716 -0.023252 0.013885 0 0 0 255
-0.023629 0.020640 0.005443 0 0 0 255
0.016860 0.007566 0.022743 0 0 0 255
0.012568 0.008200 0.027140 0 0 0 255
-0.002550 -0.039217 0.000044 0 0 0 255
-0.023034 -0.006806 0.015031 0 0 0 255
0.024334 -0.018651 0.006255 0 0 0 255
-0.008716 0.025529 0.010926 0 0 0 255
0.004570 -0.015323 0.025950 0 0 0 255
-0.006214 -0.019176 0.020459 0 0 0 255
0.011575 -0.013846 0.023318 0 0 0 255
-0.025230 -0.004692 0.012727 0 0 0 255
0.035247 -0.017689 0.000029 0 0 0 255
-0.034866 0.004042 0.001945 0 0 0 255
0.013388 -0.008846 0.025880 0 0 0 255
0.020420 -0.004576 0.019392 0 0 0 255
-0.009170 0.008048 0.030238 0 0 0 255
0.019024 0.023971 0.006321 0 0 0 255
0.019035 0.021507 0.008627 0 0 0 255
0.015853 -0.021748 0.011011 0 0 0 255
0.011711 -0.002780 0.030405 0 0 0 255
0.010233 0.010844 0.027254 0 0 0 255
-0.007095 0.021974 0.016342 0 0 0 255
0.011259 -0.036678 0.000235 0 0 0 255
-0.006060 -0.010559 0.030264 0 0 0 255
-0.018422 0.017689 0.012897 0 0 0 255
-0.004725 0.022781 0.016094 0 0 0 255
0.005730 0.038904 0.000041 0 0 0 255
-0.020744 -0.019432 0.009009 0 0 0 255
0.037581 -0.009182 0.000153 0 0 0 255
-0.001957 -0.004674 0.035589 0 0 0 255
0.011104 -0.037443 0.000080 0 0 0 255
0.014960 -0.015627 0.018400 0 0 0 255
-0.011717 -0.012490 0.024519 0 0 0 255
0.037822 -0.000682 0.000410 0 0 0 255
-0.011352 -0.033594 0.001685 0 0 0 255
-0.002046 -0.012812 0.029432 0 0 0 255
0.012296 0.006230 0.028547 0 0 0 255
-0.001004 0.031704 0.005064 0 0 0 255
0.035354 0.009752 0.000934 0 0 0 255
-0.000947 -0.012482 0.029913 0 0 0 255
0.012526 -0.031832 0.002653 0 0 0 255
0.021963 0.031198 0.000299 0 0 0 255
-0.019430 0.024043 0.005963 0 0 0 255
0.015620 0.000292 0.026401 0 0 0 255
0.001793 0.012598 0.029696 0 0 0 255
-0.012653 -0.008803 0.026653 0 0 0 255
-0.017549 -0.030918 0.001622 0 0 0 255
0.031953 0.010343 0.003200 0 0 0 255
-0.027612 -0.019703 0.002900 0 0 0 255
-0.019420 0.017377 0.012178 0 0 0 255
0.000334 -0.006664 0.034742 0 0 0 255
0.023123 -0.022309 0.004626 0 0 0 255
-0.017334 -0.030031 0.002271 0 0 0 255
-0.015072 -0.034001 0.000675 0 0 0 255
-0.014873 0.036762 0.000011 0 0 0 255
-0.020010 -0.023311 0.006183 0 0 0 255
0.011037 0.032316 0.002703 0 0 0 255
0.004873 0.015771 0.025306 0 0 0 255
-0.018150 -0.005796 0.021972 0 0 0 255
-0.017139 0.033692 0.000421 0 0 0 255
0.011302 -0.002630 0.030833 0 0 0 255
-0.022328 0.027509 0.001706 0 0 0 255
0.008055 -0.019547 0.019090 0 0 0 255
-0.021657 -0.025741 0.003150 0 0 0 255
-0.002885 0.000617 0.036361 0 0 0 255
-0.020344 -0.000812 0.020179 0 0 0 255
-0.030008 0.024269 0.000175 0 0 0 255
0.017659 -0.014340 0.016827 0 0 0 255
0.024792 0.028573 0.000410 0 0 0 255
0.011309 -0.033204 0.001962 0 0 0 255
-0.002259 0.005492 0.035158 0 0 0 255
-0.022885 -0.019434 0.007008 0 0 0 255
0.008573 0.017602 0.021256 0 0 0 255
-0.014280 -0.030225 0.003344 0 0 0 255
0.033140 0.007230 0.002901 0 0 0 255
-0.034265 0.019430 0.000034 0 0 0 255
-0.004157 0.036166 0.001084 0 0 0 255
-0.008742 0.018843 0.019607 0 0 0 255
0.005110 -0.000152 0.035569 0 0 0 255
0.000273 0.019031 0.021998 0 0 0 255
0.015057 -0.022938 0.010305 0 0 0 255
-0.013661 0.032085 0.002117 0 0 0 255
-0.025732 0.005273 0.011892 0 0 0 255
-0.031849 -0.006579 0.004224 0 0 0 255
-0.013610 0.022426 0.011939 0 0 0 255
-0.037485 -0.007002 0.000305 0 0 0 255
-0.002183 0.030728 0.006086 0 0 0 255
0.009839 0.038398 0.000012 0 0 0 255
0.004075 -0.020134 0.019927 0 0 0 255
0.011815 0.034402 0.001101 0 0 0 255
0.001091 -0.017161 0.024428 0 0 0 255
0.011559 0.005751 0.029499 0 0 0 255
-0.005153 -0.002346 0.035301 0 0 0 255
-0.007308 0.016455 0.023373 0 0 0 255
-0.038514 -0.004853 0.000125 0 0 0 255
-0.031903 0.005912 0.004300 0 0 0 255
0.006306 0.034288 0.002124 0 0 0 255
0.009452 0.027669 0.007971 0 0 0 255
0.009528 0.016895 0.021505 0 0 0 255
0.007095 -0.029225 0.006948 0 0 0 255
-0.029447 0.016624 0.002992 0 0 0 255
-0.019060 0.026621 0.004003 0 0 0 255
0.007580 -0.038310 0.000081 0 0 0 255
0.004622 -0.001788 0.035640 0 0 0 255
0.005162 -0.039068 0.000032 0 0 0 255
-0.024774 -0.026764 0.001046 0 0 0 255
0.018191 0.017246 0.013557 0 0 0 255
-0.020305 -0.008322 0.017962 0 0 0 255
-0.007700 0.011625 0.028369 0 0 0 255
0.013539 -0.010693 0.024355 0 0 0 255
-0.036068 -0.000097 0.001285 0 0 0 255
0.016595 0.017302 0.015094 0 0 0 255
0.008890 -0.030858 0.004645 0 0 0 255
-0.032189 -0.020016 0.000383 0 0 0 255
0.030789 -0.019422 0.001085 0 0 0 255
-0.003852 0.033268 0.003286 0 0 0 255
-0.012009 -0.013400 0.023388 0 0 0 255
-0.030123 -0.021538 0.000751 0 0 0 255
-0.009502 -0.003232 0.032277 0 0 0 255
0.027372 -0.010069 0.008065 0 0 0 255
0.024571 -0.009161 0.011952 0 0 0 255
-0.019484 0.026886 0.003554 0 0 0 255
0.023927 -0.002030 0.015038 0 0 0 255
0.019131 -0.025663 0.004755 0 0 0 255
-0.029810 -0.024980 0.000110 0 0 0 255
0.013109 0.031105 0.003047 0 0 0 255
-0.005388 -0.008617 0.032167 0 0 0 255
-0.022686 0.032103 0.000043 0 0 0 255
-0.001992 0.023573 0.015541 0 0 0 255
-0.017999 -0.020027 0.010993 0 0 0 255
-0.012787 -0.026594 0.007637 0 0 0 255
0.007166 -0.011086 0.029189 0 0 0 255
0.020582 -0.028378 0.001977 0 0 0 255
0.006928 0.024801 0.012604 0 0 0 255
0.007949 0.028065 0.008059 0 0 0 255
-0.024126 -0.009644 0.012285 0 0 0 255
-0.000463 0.035172 0.001889 0 0 0 255
-0.037329 -0.011525 0.000078 0 0 0 255
-0.016771 0.019029 0.013141 0 0 0 255
0.027314 -0.016886 0.004646 0 0 0 255
-0.003495 -0.013080 0.028819 0 0 0 255
-0.007135 0.004791 0.033444 0 0 0 255
0.008171 -0.013469 0.026241 0 0 0 255
-0.034882 0.010432 0.001081 0 0 0 255
-0.034777 0.018885 0.000017 0 0 0 255
0.025069 -0.031044 0.000001 0 0 0 255
-0.008481 -0.013079 0.026443 0 0 0 255
0.006142 -0.015398 0.025216 0 0 0 255
0.013679 -0.024039 0.010013 0 0 0 255
0.025119 0.005583 0.012630 0 0 0 255
0.011092 -0.013777 0.023790 0 0 0 255
0.005111 -0.013361 0.027959 0 0 0 255
-0.024628 -0.010165 0.011378 0 0 0 255
-0.029016 0.024839 0.000286 0 0 0 255
-0.010172 -0.007558 0.029751 0 0 0 255
-0.034538 -0.008370 0.001631 0 0 0 255
-0.005865 0.017287 0.023042 0 0 0 255
-0.024506 -0.027022 0.001041 0 0 0 255
-0.007419 0.005556 0.032918 0 0 0 255
0.026982 -0.027347 0.000221 0 0 0 255
-0.003483 -0.033842 0.002813 0 0 0 255
0.016875 -0.005490 0.023714 0 0 0 255
-0.022292 -0.017293 0.009283 0 0 0 255
0.008080 -0.034178 0.001930 0 0 0 255
0.001584 -0.021206 0.018918 0 0 0 255
0.011967 0.037216 0.000074 0 0 0 255
0.019561 0.009539 0.018218 0 0 0 255
0.034883 -0.008270 0.001423 0 0 0 255
0.002394 0.035726 0.001451 0 0 0 255
0.007708 -0.015393 0.024404 0 0 0 255
-0.003426 0.014890 0.026816 0 0 0 255
0.008046 0.000079 0.033845 0 0 0 255
0.007358 0.006565 0.032428 0 0 0 255
0.028966 0.026298 0.000069 0 0 0 255
0.013964 -0.031913 0.002146 0 0 0 255
-0.017921 -0.011050 0.019213 0 0 0 255
-0.012844 -0.023873 0.010747 0 0 0 255
-0.034959 0.018969 0.000005 0 0 0 255
0.035197 -0.014683 0.000304 0 0 0 255
0.018057 -0.012385 0.018029 0 0 0 255
0.032071 -0.010098 0.003165 0 0 0 255
0.026855 0.017993 0.004424 0 0 0 255
-0.000323 0.010294 0.032048 0 0 0 255
0.000217 0.037928 0.000374 0 0 0 255
0.030666 -0.016963 0.001985 0 0 0 255
-0.036151 0.008992 0.000647 0 0 0 255
0.002348 0.036091 0.001224 0 0 0 255
-0.002475 0.013943 0.028124 0 0 0 255
0.037547 0.008155 0.000220 0 0 0 255
-0.008033 0.013110 0.026700 0 0 0 255
0.016908 0.002218 0.024611 0 0 0 255
0.009174 0.000421 0.032987 0 0 0 255
0.006277 -0.016327 0.024045 0 0 0 255
-0.016721 -0.022147 0.009889 0 0 0 255
-0.024400 -0.005549 0.013618 0 0 0 255
0.018412 0.016302 0.014223 0 0 0 255
-0.036314 0.007419 0.000735 0 0 0 255
0.002125 0.001642 0.036429 0 0 0 255
-0.024735 -0.024140 0.002360 0 0 0 255
0.019846 -0.006616 0.019401 0 0 0 255
-0.002026 0.035636 0.001526 0 0 0 255
-0.016810 -0.009838 0.021395 0 0 0 255
-0.024454 -0.019983 0.005216 0 0 0 255
0.026559 -0.009155 0.009440 0 0 0 255
0.013033 0.014391 0.021479 0 0 0 255
-0.031809 0.011741 0.002912 0 0 0 255
-0.003364 -0.039810 0.000000 0 0 0 255
0.028666 -0.006081 0.007891 0 0 0 255
-0.029455 0.020048 0.001569 0 0 0 255
-0.000916 0.020266 0.020281 0 0 0 255
-0.025090 0.012578 0.009474 0 0 0 255
0.000643 -0.012728 0.029676 0 0 0 255
-0.016938 -0.008841 0.021899 0 0 0 255
-0.022001 0.023528 0.004542 0 0 0 255
0.030322 0.015619 0.002738 0 0 0 255
0.008781 0.028953 0.006730 0 0 0 255
-0.004661 0.009639 0.031681 0 0 0 255
0.006738 -0.021093 0.017682 0 0 0 255
-0.021195 0.010898 0.015293 0 0 0 255
0.018575 0.008235 0.020237 0 0 0 255
0.024746 0.003968 0.013564 0 0 0 255
0.018418 0.003553 0.022370 0 0 0 255
-0.027129 -0.014072 0.006370 0 0 0 255
-0.013771 0.006078 0.027086 0 0 0 255
0.004432 0.017416 0.023418 0 0 0 255
0.015420 0.016060 0.017511 0 0 0 255
0.011663 0.001461 0.030685 0 0 0 255
0.004548 0.010183 0.031267 0 0 0 255
0.028381 0.016047 0.004141 0 0 0 255
-0.003366 -0.035726 0.001401 0 0 0 255
-0.038309 -0.011383 0.000000 0 0 0 255
-0.036190 0.013230 0.000191 0 0 0 255
0.020058 -0.015056 0.013538 0 0 0 255
-0.033108 -0.008880 0.002593 0 0 0 255
-0.000722 0.011898 0.030521 0 0 0 255
-0.007170 0.004119 0.033685 0 0 0 255
-0.007094 -0.008148 0.031593 0 0 0 255
-0.005487 -0.018723 0.021350 0 0 0 255
-0.019748 -0.001362 0.020959 0 0 0 255
0.009485 -0.021737 0.015458 0 0 0 255
-0.007200 0.028955 0.007234 0 0 0 255
0.009115 0.009368 0.029329 0 0 0 255
0.008052 -0.000195 0.033840 0 0 0 255
-0.017067 -0.018644 0.013264 0 0 0 255
0.019658 -0.015150 0.013905 0 0 0 255
-0.013741 -0.011308 0.023648 0 0 0 255
-0.016039 0.015821 0.017137 0 0 0 255
-0.014071 -0.021175 0.013059 0 0 0 255
-0.020282 -0.021151 0.007890 0 0 0 255
0.009082 0.023392 0.013520 0 0 0 255
-0.025133 -0.020380 0.004391 0 0 0 255
0.018779 -0.006023 0.021060 0 0 0 255
0.027973 -0.012626 0.006219 0 0 0 255
-0.003087 0.003065 0.035896 0 0 0 255
-0.015233 -0.002507 0.026625 0 0 0 255
-0.035474 -0.000425 0.001674 0 0 0 255
-0.031677 0.010549 0.003382 0 0 0 255
0.022605 -0.007471 0.015328 0 0 0 255
-0.036973 0.011634 0.000137 0 0 0 255
-0.008705 0.015059 0.024172 0 0 0 255
-0.012769 -0.015778 0.020266 0 0 0 255
0.001805 0.023540 0.015609 0 0 0 255
-0.020262 -0.014342 0.013897 0 0 0 255
-0.014815 -0.031653 0.002058 0 0 0 255
-0.003404 -0.020971 0.018944 0 0 0 255
0.000313 -0.001035 0.036706 0 0 0 255
0.011558 -0.037479 0.000055 0 0 0 255
0.012312 0.032001 0.002586 0 0 0 255
-0.030407 0.025724 0.000003 0 0 0 255
-0.011532 0.015423 0.021695 0 0 0 255
0.006324 -0.033897 0.002426 0 0 0 255
0.004346 0.033653 0.002890 0 0 0 255
-0.015052 0.006062 0.025657 0 0 0 255
-0.014168 -0.007359 0.025981 0 0 0 255
0.011418 -0.017877 0.018991 0 0 0 255
-0.001902 0.027607 0.009993 0 0 0 255
0.023508 -0.003624 0.015360 0 0 0 255
-0.030692 -0.022936 0.000250 0 0 0 255
-0.029876 -0.002535 0.007056 0 0 0 255
0.011104 0.017197 0.020026 0 0 0 255
-0.008069 -0.024882 0.012043 0 0 0 255
0.030055 0.001900 0.006898 0 0 0 255
0.001625 -0.024378 0.014448 0 0 0 255
0.031023 -0.018419 0.001278 0 0 0 255
0.007566 0.025988 0.010804 0 0 0 255
-0.032452 -0.014439 0.001644 0 0 0 255
-0.007903 0.024174 0.013045 0 0 0 255
-0.039055 0.004803 0.000038 0 0 0 255
-0.034203 -0.001702 0.002622 0 0 0 255
0.013792 -0.031544 0.002470 0 0 0 255
-0.006512 0.024187 0.013583 0 0 0 255
-0.020932 -0.016537 0.011333 0 0 0 255
0.003352 0.010896 0.031031 0 0 0 255
0.025720 -0.005154 0.011941 0 0 0 255
0.013442 0.035957 0.000229 0 0 0 255
0.002021 0.000230 0.036570 0 0 0 255
0.020874 -0.002236 0.019298 0 0 0 255
0.017687 0.032168 0.000915 0 0 0 255
0.023941 -0.017133 0.007721 0 0 0 255
-0.003209 -0.009232 0.032502 0 0 0 255
-0.011233 0.019879 0.016707 0 0 0 255
-0.036395 -0.004967 0.000902 0 0 0 255
-0.020245 0.004449 0.019668 0 0 0 255
0.015107 0.032401 0.001488 0 0 0 255
0.036002 -0.014573 0.000120 0 0 0 255
0.009000 0.015056 0.023981 0 0 0 255
0.006383 0.036388 0.000794 0 0 0 255
0.013137 0.005325 0.028106 0 0 0 255
0.030431 0.023275 0.000251 0 0 0 255
0.019029 0.019379 0.010678 0 0 0 255
-0.023822 0.031711 0.000010 0 0 0 255
0.029941 -0.009392 0.005436 0 0 0 255
-0.005152 -0.031450 0.004903 0 0 0 255
-0.017782 -0.015568 0.015575 0 0 0 255
-0.009307 0.005447 0.031611 0 0 0 255
-0.000207 0.021641 0.018388 0 0 0 255
-0.015584 0.016246 0.017161 0 0 0 255
0.011390 0.031861 0.002975 0 0 0 255
0.017747 -0.011654 0.018965 0 0 0 255
0.016916 0.025332 0.006487 0 0 0 255
-0.014824 0.029809 0.003472 0 0 0 255
-0.011371 0.014099 0.023230 0 0 0 255
-0.010122 0.014606 0.023681 0 0 0 255
0.036764 0.004824 0.000728 0 0 0 255
0.036544 -0.009527 0.000434 0 0 0 255
-0.000938 -0.023934 0.015124 0 0 0 255
0.013469 0.007752 0.026500 0 0 0 255
0.009431 -0.019062 0.018914 0 0 0 255
-0.017597 0.020374 0.011000 0 0 0 255
0.004700 -0.030120 0.006459 0 0 0 255
-0.014661 0.003280 0.027121 0 0 0 255
0.015526 -0.030536 0.002612 0 0 0 255
0.004454 0.015545 0.025727 0 0 0 255
0.005289 -0.013390 0.027853 0 0 0 255
-0.021416 -0.021204 0.006871 0 0 0 255
0.002844 0.021575 0.018220 0 0 0 255
-0.011776 0.014187 0.022799 0 0 0 255
-0.012192 -0.002747 0.029933 0 0 0 255
0.005109 -0.038576 0.000106 0 0 0 255
-0.018342 -0.022521 0.008215 0 0 0 255
0.018107 -0.008909 0.020428 0 0 0 255
-0.019484 -0.015217 0.014040 0 0 0 255
-0.009888 -0.020004 0.017440 0 0 0 255
-0.023765 0.000610 0.015377 0 0 0 255
-0.013398 -0.009609 0.025330 0 0 0 255
-0.007883 0.008040 0.031165 0 0 0 255
-0.009307 -0.011918 0.027005 0 0 0 255
0.002111 0.013434 0.028753 0 0 0 255
-0.018392 0.016816 0.013761 0 0 0 255
-0.031690 0.018224 0.000998 0 0 0 255
-0.005320 -0.005339 0.034196 0 0 0 255
-0.016950 -0.028289 0.003771 0 0 0 255
0.020564 -0.005764 0.018789 0 0 0 255
0.031723 0.014644 0.002065 0 0 0 255
0.029602 0.021594 0.000951 0 0 0 255
-0.026352 0.007750 0.010266 0 0 0 255
0.010211 -0.008250 0.029268 0 0 0 255
0.026466 0.020609 0.003237 0 0 0 255
-0.010158 -0.025519 0.010268 0 0 0 255
-0.010235 -0.011951 0.026264 0 0 0 255
0.024680 0.029676 0.000174 0 0 0 255
-0.003009 -0.020333 0.019909 0 0 0 255
0.010130 0.002699 0.031884 0 0 0 255
0.012591 -0.004158 0.029125 0 0 0 255
0.029354 -0.012503 0.004864 0 0 0 255
-0.023939 0.020007 0.005639 0 0 0 255
-0.002931 -0.001873 0.036206 0 0 0 255
-0.018769 -0.019561 0.010746 0 0 0 255
0.008486 0.010796 0.028606 0 0 0 255
0.005623 0.014630 0.026339 0 0 0 255
0.007219 -0.004998 0.033303 0 0 0 255
0.008167 0.034057 0.002003 0 0 0 255
-0.001263 0.012003 0.030371 0 0 0 255
0.003447 -0.001672 0.036089 0 0 0 255
-0.034158 -0.017213 0.000269 0 0 0 255
-0.002876 -0.035073 0.001878 0 0 0 255
0.033126 0.013453 0.001486 0 0 0 255
0.025988 0.016747 0.005958 0 0 0 255
0.033621 0.001910 0.003118 0 0 0 255
0.016142 -0.023720 0.008664 0 0 0 255
-0.012363 0.028347 0.005948 0 0 0 255
0.027947 0.010713 0.007121 0 0 0 255
0.000508 0.038890 0.000109 0 0 0 255
-0.026112 0.008909 0.010103 0 0 0 255
0.025271 -0.011912 0.009643 0 0 0 255
0.018425 0.035156 0.000009 0 0 0 255
-0.008407 0.026901 0.009320 0 0 0 255
0.031565 -0.004946 0.004817 0 0 0 255
0.010094 -0.038155 0.000026 0 0 0 255
0.031145 -0.018491 0.001191 0 0 0 255
0.018118 0.005183 0.022253 0 0 0 255
-0.015711 -0.020758 0.012213 0 0 0 255
0.023428 0.021075 0.005291 0 0 0 255
-0.014423 -0.005274 0.026722 0 0 0 255
0.024973 -0.024352 0.002110 0 0 0 255
0.013219 -0.004034 0.028507 0 0 0 255
-0.016143 0.020246 0.012406 0 0 0 255
0.019732 -0.009225 0.018192 0 0 0 255
0.024870 -0.010229 0.011041 0 0 0 255
0.032162 0.003817 0.004360 0 0 0 255
-0.000089 0.035989 0.001334 0 0 0 255
0.012640 -0.030484 0.003749 0 0 0 255
0.006707 -0.019399 0.019950 0 0 0 255
0.007252 0.002390 0.034130 0 0 0 255
-0.021329 0.014726 0.012372 0 0 0 255
-0.018576 -0.016048 0.014285 0 0 0 255
-0.031288 -0.017418 0.001449 0 0 0 255
-0.024042 -0.019527 0.005894 0 0 0 255
-0.003242 -0.036134 0.001157 0 0 0 255
-0.029145 -0.004955 0.007569 0 0 0 255
0.005508 -0.030721 0.005625 0 0 0 255
0.030287 -0.011348 0.004406 0 0 0 255
0.004031 0.036997 0.000663 0 0 0 255
-0.029633 0.019510 0.001672 0 0 0 255
-0.030429 -0.012935 0.003687 0 0 0 255
0.005334 -0.037261 0.000482 0 0 0 255
0.009291 0.029019 0.006476 0 0 0 255
0.017442 0.015135 0.016339 0 0 0 255
-0.005494 0.018656 0.021435 0 0 0 255
0.006702 0.008487 0.031583 0 0 0 255
0.002389 -0.006789 0.034418 0 0 0 255
0.038399 0.004856 0.000149 0 0 0 255
0.005393 -0.011030 0.030160 0 0 0 255
-0.031596 0.008530 0.004017 0 0 0 255
0.019787 0.005848 0.019801 0 0 0 255
-0.011372 -0.025149 0.010089 0 0 0 255
-0.017620 -0.001278 0.023818 0 0 0 255
0.016143 0.017716 0.015103 0 0 0 255
-0.022560 0.031635 0.000117 0 0 0 255
-0.021923 -0.032344 0.000077 0 0 0 255
0.003315 0.022723 0.016522 0 0 0 255
-0.027604 0.000212 0.010083 0 0 0 255
-0.017098 -0.032894 0.000731 0 0 0 255
-0.019051 0.000745 0.021954 0 0 0 255
0.024560 -0.006231 0.013178 0 0 0 255
-0.020191 0.025792 0.003989 0 0 0 255
0.035772 0.011841 0.000466 0 0 0 255
0.029282 -0.003792 0.007614 0 0 0 255
0.031283 -0.000029 0.005544 0 0 0 255
0.009464 -0.036910 0.000315 0 0 0 255
-0.020145 0.003031 0.020163 0 0 0 255
0.033532 0.005359 0.002868 0 0 0 255
-0.007426 0.006775 0.032263 0 0 0 255
-0.013619 -0.006898 0.026830 0 0 0 255
-0.009875 0.026830 0.008796 0 0 0 255
-0.026245 -0.005300 0.011199 0 0 0 255
-0.022522 -0.022940 0.004609 0 0 0 255
0.019089 0.001288 0.021864 0 0 0 255
-0.031310 0.004981 0.005082 0 0 0 255
0.006595 0.020758 0.018193 0 0 0 255
0.005214 0.014430 0.026739 0 0 0 255
-0.029535 0.013896 0.004104 0 0 0 255
0.006373 -0.011283 0.029449 0 0 0 255
-0.023994 -0.015076 0.009122 0 0 0 255
-0.021666 0.030219 0.000679 0 0 0 255
0.030798 0.000292 0.006093 0 0 0 255
0.017182 -0.034652 0.000155 0 0 0 255
0.030603 -0.015988 0.002389 0 0 0 255
0.001045 0.004453 0.035805 0 0 0 255
-0.010632 -0.035097 0.000935 0 0 0 255
-0.030222 0.010510 0.004766 0 0 0 255
-0.001502 -0.036509 0.001007 0 0 0 255
-0.008516 -0.009235 0.029866 0 0 0 255
0.008694 0.023524 0.013539 0 0 0 255
0.020515 -0.002938 0.019673 0 0 0 255
0.003610 0.016661 0.024619 0 0 0 255
-0.012578 0.032476 0.002152 0 0 0 255
-0.001838 -0.036414 0.001052 0 0 0 255
0.007957 0.032391 0.003413 0 0 0 255
-0.020947 -0.013279 0.013929 0 0 0 255
0.003949 0.039381 0.000016 0 0 0 255
0.006210 -0.032457 0.003705 0 0 0 255
-0.018297 -0.016738 0.013933 0 0 0 255
-0.005563 0.033940 0.002499 0 0 0 255
0.020642 0.016874 0.011353 0 0 0 255
0.012021 0.022680 0.012718 0 0 0 255
