ply
format ascii 1.0
element vertex 500
property float x
property float y
property float z
property uchar red
property uchar green
property uchar blue
property uchar alpha
end_header
-0.013234 0.011982 -0.288332 0 0 0 255
0.015492 0.026641 -0.025923 0 0 0 255
-0.016601 0.006329 -0.338515 0 0 0 255
0.037243 -0.003130 -0.051573 0 0 0 255
-0.006451 -0.020282 -0.385728 0 0 0 255
-0.018454 0.028755 -0.197589 0 0 0 255
-0.026789 0.027613 -0.236706 0 0 0 255
-0.014435 -0.035416 -0.353246 0 0 0 255
-0.002142 0.023949 -0.134784 0 0 0 255
-0.006743 0.037705 -0.084918 0 0 0 255
0.037604 0.009166 -0.032191 0 0 0 255
-0.006258 0.012252 -0.244058 0 0 0 255
-0.024698 -0.011244 -0.400789 0 0 0 255
0.028934 0.022503 -0.019128 0 0 0 255
-0.020264 -0.022583 -0.393732 0 0 0 255
0.031468 0.020313 -0.022671 0 0 0 255
0.028794 0.015604 -0.019237 0 0 0 255
0.031304 0.009431 -0.027791 0 0 0 255
-0.019806 -0.005089 -0.393877 0 0 0 255
0.014101 0.005760 -0.132540 0 0 0 255
0.023015 0.006853 -0.066605 0 0 0 255
0.035555 -0.007373 -0.069319 0 0 0 255
0.011337 0.033265 -0.026483 0 0 0 255
0.008716 -0.023252 -0.311574 0 0 0 255
-0.023629 0.020640 -0.274736 0 0 0 255
0.016860 0.007566 -0.101724 0 0 0 255
0.012568 0.008200 -0.129234 0 0 0 255
-0.002550 -0.039217 -0.339164 0 0 0 255
-0.023034 -0.006806 -0.399013 0 0 0 255
0.024334 -0.018651 -0.181549 0 0 0 255
-0.008716 0.025529 -0.166615 0 0 0 255
0.004570 -0.015323 -0.318619 0 0 0 255
-0.006214 -0.019176 -0.384187 0 0 0 255
0.011575 -0.013846 -0.261291 0 0 0 255
-0.025230 -0.004692 -0.394528 0 0 0 255
0.035247 -0.017689 -0.108546 0 0 0 255
-0.034866 0.004042 -0.358718 0 0 0 255
0.013388 -0.008846 -0.223154 0 0 0 255
0.020420 -0.004576 -0.144110 0 0 0 255
-0.009170 0.008048 -0.290957 0 0 0 255
0.019024 0.023971 -0.021485 0 0 0 255
0.019035 0.021507 -0.027227 0 0 0 255
0.015853 -0.021748 -0.257007 0 0 0 255
0.011711 -0.002780 -0.203355 0 0 0 255
0.010233 0.010844 -0.130389 0 0 0 255
-0.007095 0.021974 -0.181005 0 0 0 255
0.011259 -0.036678 -0.300719 0 0 0 255
-0.006060 -0.010559 -0.366123 0 0 0 255
-0.018422 0.017689 -0.275114 0 0 0 255
-0.004725 0.022781 -0.159781 0 0 0 255
0.005730 0.038904 -0.035076 0 0 0 255
-0.020744 -0.019432 -0.399861 0 0 0 255
0.037581 -0.009182 -0.069466 0 0 0 255
-0.001957 -0.004674 -0.318269 0 0 0 255
0.011104 -0.037443 -0.300401 0 0 0 255
0.014960 -0.015627 -0.242092 0 0 0 255
-0.011717 -0.012490 -0.393154 0 0 0 255
0.037822 -0.000682 -0.044766 0 0 0 255
-0.011352 -0.033594 -0.366582 0 0 0 255
-0.002046 -0.012812 -0.351941 0 0 0 255
0.012296 0.006230 -0.143524 0 0 0 255
-0.001004 0.031704 -0.083162 0 0 0 255
0.035354 0.009752 -0.027419 0 0 0 255
-0.000947 -0.012482 -0.344477 0 0 0 255
0.012526 -0.031832 -0.296347 0 0 0 255
0.021963 0.031198 -0.020707 0 0 0 255
-0.019430 0.024043 -0.235234 0 0 0 255
0.015620 0.000292 -0.153684 0 0 0 255
0.001793 0.012598 -0.183274 0 0 0 255
-0.012653 -0.008803 -0.387700 0 0 0 255
-0.017549 -0.030918 -0.369077 0 0 0 255
0.031953 0.010343 -0.025440 0 0 0 255
-0.027612 -0.019703 -0.378895 0 0 0 255
-0.019420 0.017377 -0.281402 0 0 0 255
0.000334 -0.006664 -0.312464 0 0 0 255
0.023123 -0.022309 -0.203921 0 0 0 255
-0.017334 -0.030031 -0.373579 0 0 0 255
-0.015072 -0.034001 -0.359441 0 0 0 255
-0.014873 0.036762 -0.128695 0 0 0 255
-0.020010 -0.023311 -0.392228 0 0 0 255
0.011037 0.032316 -0.028482 0 0 0 255
0.004873 0.015771 -0.138789 0 0 0 255
-0.018150 -0.005796 -0.393248 0 0 0 255
-0.017139 0.033692 -0.158159 0 0 0 255
0.011302 -0.002630 -0.205870 0 0 0 255
-0.022328 0.027509 -0.222813 0 0 0 255
0.008055 -0.019547 -0.307490 0 0 0 255
-0.021657 -0.025741 -0.379884 0 0 0 255
-0.002885 0.000617 -0.296001 0 0 0 255
-0.020344 -0.000812 -0.381765 0 0 0 255
-0.030008 0.024269 -0.265757 0 0 0 255
0.017659 -0.014340 -0.215080 0 0 0 255
0.024792 0.028573 -0.020574 0 0 0 255
0.011309 -0.033204 -0.303329 0 0 0 255
-0.002259 0.005492 -0.261571 0 0 0 255
-0.022885 -0.019434 -0.395546 0 0 0 255
0.008573 0.017602 -0.100958 0 0 0 255
-0.014280 -0.030225 -0.377889 0 0 0 255
0.033140 0.007230 -0.030596 0 0 0 255
-0.034265 0.019430 -0.297233 0 0 0 255
-0.004157 0.036166 -0.079132 0 0 0 255
-0.008742 0.018843 -0.213871 0 0 0 255
0.005110 -0.000152 -0.241082 0 0 0 255
0.000273 0.019031 -0.150632 0 0 0 255
0.015057 -0.022938 -0.266295 0 0 0 255
-0.013661 0.032085 -0.151198 0 0 0 255
-0.025732 0.005273 -0.365011 0 0 0 255
-0.031849 -0.006579 -0.381807 0 0 0 255
-0.013610 0.022426 -0.217511 0 0 0 255
-0.037485 -0.007002 -0.354518 0 0 0 255
-0.002183 0.030728 -0.094759 0 0 0 255
0.009839 0.038398 -0.028281 0 0 0 255
0.004075 -0.020134 -0.334899 0 0 0 255
0.011815 0.034402 -0.024757 0 0 0 255
0.001091 -0.017161 -0.346015 0 0 0 255
0.011559 0.005751 -0.152274 0 0 0 255
-0.005153 -0.002346 -0.326863 0 0 0 255
-0.007308 0.016455 -0.221510 0 0 0 255
-0.038514 -0.004853 -0.350225 0 0 0 255
-0.031903 0.005912 -0.360106 0 0 0 255
0.006306 0.034288 -0.039865 0 0 0 255
0.009452 0.027669 -0.046478 0 0 0 255
0.009528 0.016895 -0.098542 0 0 0 255
0.007095 -0.029225 -0.327352 0 0 0 255
-0.029447 0.016624 -0.311737 0 0 0 255
-0.019060 0.026621 -0.215348 0 0 0 255
0.007580 -0.038310 -0.314679 0 0 0 255
0.004622 -0.001788 -0.254668 0 0 0 255
0.005162 -0.039068 -0.321703 0 0 0 255
-0.024774 -0.026764 -0.363669 0 0 0 255
0.018191 0.017246 -0.045269 0 0 0 255
-0.020305 -0.008322 -0.400963 0 0 0 255
-0.007700 0.011625 -0.257937 0 0 0 255
0.013539 -0.010693 -0.231193 0 0 0 255
-0.036068 -0.000097 -0.361600 0 0 0 255
0.016595 0.017302 -0.053027 0 0 0 255
0.008890 -0.030858 -0.317429 0 0 0 255
-0.032189 -0.020016 -0.353732 0 0 0 255
0.030789 -0.019422 -0.139926 0 0 0 255
-0.003852 0.033268 -0.090971 0 0 0 255
-0.012009 -0.013400 -0.395503 0 0 0 255
-0.030123 -0.021538 -0.359770 0 0 0 255
-0.009502 -0.003232 -0.355041 0 0 0 255
0.027372 -0.010069 -0.122361 0 0 0 255
0.024571 -0.009161 -0.137217 0 0 0 255
-0.019484 0.026886 -0.215402 0 0 0 255
0.023927 -0.002030 -0.105539 0 0 0 255
0.019131 -0.025663 -0.243232 0 0 0 255
-0.029810 -0.024980 -0.345792 0 0 0 255
0.013109 0.031105 -0.024721 0 0 0 255
-0.005388 -0.008617 -0.355960 0 0 0 255
-0.022686 0.032103 -0.192500 0 0 0 255
-0.001992 0.023573 -0.136222 0 0 0 255
-0.017999 -0.020027 -0.401965 0 0 0 255
-0.012787 -0.026594 -0.390345 0 0 0 255
0.007166 -0.011086 -0.283328 0 0 0 255
0.020582 -0.028378 -0.238705 0 0 0 255
0.006928 0.024801 -0.072069 0 0 0 255
0.007949 0.028065 -0.052157 0 0 0 255
-0.024126 -0.009644 -0.401197 0 0 0 255
-0.000463 0.035172 -0.065501 0 0 0 255
-0.037329 -0.011525 -0.347678 0 0 0 255
-0.016771 0.019029 -0.258209 0 0 0 255
0.027314 -0.016886 -0.152939 0 0 0 255
-0.003495 -0.013080 -0.360673 0 0 0 255
-0.007135 0.004791 -0.298909 0 0 0 255
0.008171 -0.013469 -0.285880 0 0 0 255
-0.034882 0.010432 -0.338801 0 0 0 255
-0.034777 0.018885 -0.299884 0 0 0 255
0.025069 -0.031044 -0.212385 0 0 0 255
-0.008481 -0.013079 -0.383440 0 0 0 255
0.006142 -0.015398 -0.308011 0 0 0 255
0.013679 -0.024039 -0.279010 0 0 0 255
0.025119 0.005583 -0.061330 0 0 0 255
0.011092 -0.013777 -0.264762 0 0 0 255
0.005111 -0.013361 -0.307869 0 0 0 255
-0.024628 -0.010165 -0.400753 0 0 0 255
-0.029016 0.024839 -0.260367 0 0 0 255
-0.010172 -0.007558 -0.374917 0 0 0 255
-0.034538 -0.008370 -0.369310 0 0 0 255
-0.005865 0.017287 -0.205912 0 0 0 255
-0.024506 -0.027022 -0.363645 0 0 0 255
-0.007419 0.005556 -0.295973 0 0 0 255
0.026982 -0.027347 -0.191134 0 0 0 255
-0.003483 -0.033842 -0.360719 0 0 0 255
0.016875 -0.005490 -0.176853 0 0 0 255
-0.022292 -0.017293 -0.400620 0 0 0 255
0.008080 -0.034178 -0.319645 0 0 0 255
0.001584 -0.021206 -0.351191 0 0 0 255
0.011967 0.037216 -0.025472 0 0 0 255
0.019561 0.009539 -0.073409 0 0 0 255
0.034883 -0.008270 -0.074913 0 0 0 255
0.002394 0.035726 -0.051221 0 0 0 255
0.007708 -0.015393 -0.296761 0 0 0 255
-0.003426 0.014890 -0.205851 0 0 0 255
0.008046 0.000079 -0.216107 0 0 0 255
0.007358 0.006565 -0.180377 0 0 0 255
0.028966 0.026298 -0.027792 0 0 0 255
0.013964 -0.031913 -0.287557 0 0 0 255
-0.017921 -0.011050 -0.402964 0 0 0 255
-0.012844 -0.023873 -0.396120 0 0 0 255
-0.034959 0.018969 -0.299286 0 0 0 255
0.035197 -0.014683 -0.097714 0 0 0 255
0.018057 -0.012385 -0.202932 0 0 0 255
0.032071 -0.010098 -0.094747 0 0 0 255
0.026855 0.017993 -0.017584 0 0 0 255
-0.000323 0.010294 -0.215077 0 0 0 255
0.000217 0.037928 -0.053828 0 0 0 255
0.030666 -0.016963 -0.131171 0 0 0 255
-0.036151 0.008992 -0.341028 0 0 0 255
0.002348 0.036091 -0.050353 0 0 0 255
-0.002475 0.013943 -0.205657 0 0 0 255
0.037547 0.008155 -0.032207 0 0 0 255
-0.008033 0.013110 -0.249825 0 0 0 255
0.016908 0.002218 -0.132349 0 0 0 255
0.009174 0.000421 -0.204856 0 0 0 255
0.006277 -0.016327 -0.310183 0 0 0 255
-0.016721 -0.022147 -0.399212 0 0 0 255
-0.024400 -0.005549 -0.396484 0 0 0 255
0.018412 0.016302 -0.048106 0 0 0 255
-0.036314 0.007419 -0.345477 0 0 0 255
0.002125 0.001642 -0.253365 0 0 0 255
-0.024735 -0.024140 -0.375228 0 0 0 255
0.019846 -0.006616 -0.159476 0 0 0 255
-0.002026 0.035636 -0.071110 0 0 0 255
-0.016810 -0.009838 -0.399806 0 0 0 255
-0.024454 -0.019983 -0.389872 0 0 0 255
0.026559 -0.009155 -0.123410 0 0 0 255
0.013033 0.014391 -0.089213 0 0 0 255
-0.031809 0.011741 -0.337179 0 0 0 255
-0.003364 -0.039810 -0.337275 0 0 0 255
0.028666 -0.006081 -0.095784 0 0 0 255
-0.029455 0.020048 -0.291507 0 0 0 255
-0.000916 0.020266 -0.150713 0 0 0 255
-0.025090 0.012578 -0.328449 0 0 0 255
0.000643 -0.012728 -0.335555 0 0 0 255
-0.016938 -0.008841 -0.398143 0 0 0 255
-0.022001 0.023528 -0.249340 0 0 0 255
0.030322 0.015619 -0.019049 0 0 0 255
0.008781 0.028953 -0.045058 0 0 0 255
-0.004661 0.009639 -0.251050 0 0 0 255
0.006738 -0.021093 -0.320127 0 0 0 255
-0.021195 0.010898 -0.328498 0 0 0 255
0.018575 0.008235 -0.086399 0 0 0 255
0.024746 0.003968 -0.070696 0 0 0 255
0.018418 0.003553 -0.113496 0 0 0 255
-0.027129 -0.014072 -0.393098 0 0 0 255
-0.013771 0.006078 -0.327746 0 0 0 255
0.004432 0.017416 -0.131346 0 0 0 255
0.015420 0.016060 -0.065374 0 0 0 255
0.011663 0.001461 -0.178238 0 0 0 255
0.004548 0.010183 -0.178501 0 0 0 255
0.028381 0.016047 -0.018947 0 0 0 255
-0.003366 -0.035726 -0.354277 0 0 0 255
-0.038309 -0.011383 -0.341284 0 0 0 255
-0.036190 0.013230 -0.325063 0 0 0 255
0.020058 -0.015056 -0.199271 0 0 0 255
-0.033108 -0.008880 -0.375705 0 0 0 255
-0.000722 0.011898 -0.207025 0 0 0 255
-0.007170 0.004119 -0.303219 0 0 0 255
-0.007094 -0.008148 -0.363025 0 0 0 255
-0.005487 -0.018723 -0.381055 0 0 0 255
-0.019748 -0.001362 -0.382617 0 0 0 255
0.009485 -0.021737 -0.303157 0 0 0 255
-0.007200 0.028955 -0.134758 0 0 0 255
0.009115 0.009368 -0.148315 0 0 0 255
0.008052 -0.000195 -0.217770 0 0 0 255
-0.017067 -0.018644 -0.403903 0 0 0 255
0.019658 -0.015150 -0.202846 0 0 0 255
-0.013741 -0.011308 -0.396334 0 0 0 255
-0.016039 0.015821 -0.276818 0 0 0 255
-0.014071 -0.021175 -0.400610 0 0 0 255
-0.020282 -0.021151 -0.397183 0 0 0 255
0.009082 0.023392 -0.066491 0 0 0 255
-0.025133 -0.020380 -0.386514 0 0 0 255
0.018779 -0.006023 -0.164653 0 0 0 255
0.027973 -0.012626 -0.130062 0 0 0 255
-0.003087 0.003065 -0.282762 0 0 0 255
-0.015233 -0.002507 -0.375324 0 0 0 255
-0.035474 -0.000425 -0.364352 0 0 0 255
-0.031677 0.010549 -0.342585 0 0 0 255
0.022605 -0.007471 -0.142999 0 0 0 255
-0.036973 0.011634 -0.329586 0 0 0 255
-0.008705 0.015059 -0.240499 0 0 0 255
-0.012769 -0.015778 -0.399923 0 0 0 255
0.001805 0.023540 -0.111107 0 0 0 255
-0.020262 -0.014342 -0.405245 0 0 0 255
-0.014815 -0.031653 -0.371215 0 0 0 255
-0.003404 -0.020971 -0.374792 0 0 0 255
0.000313 -0.001035 -0.282940 0 0 0 255
0.011558 -0.037479 -0.298071 0 0 0 255
0.012312 0.032001 -0.025552 0 0 0 255
-0.030407 0.025724 -0.256946 0 0 0 255
-0.011532 0.015423 -0.255329 0 0 0 255
0.006324 -0.033897 -0.328309 0 0 0 255
0.004346 0.033653 -0.049192 0 0 0 255
-0.015052 0.006062 -0.333631 0 0 0 255
-0.014168 -0.007359 -0.388295 0 0 0 255
0.011418 -0.017877 -0.278024 0 0 0 255
-0.001902 0.027607 -0.110599 0 0 0 255
0.023508 -0.003624 -0.116658 0 0 0 255
-0.030692 -0.022936 -0.350340 0 0 0 255
-0.029876 -0.002535 -0.384357 0 0 0 255
0.011104 0.017197 -0.086273 0 0 0 255
-0.008069 -0.024882 -0.388501 0 0 0 255
0.030055 0.001900 -0.054493 0 0 0 255
0.001625 -0.024378 -0.354245 0 0 0 255
0.031023 -0.018419 -0.134669 0 0 0 255
0.007566 0.025988 -0.062846 0 0 0 255
-0.032452 -0.014439 -0.370017 0 0 0 255
-0.007903 0.024174 -0.170868 0 0 0 255
-0.039055 0.004803 -0.341483 0 0 0 255
-0.034203 -0.001702 -0.370635 0 0 0 255
0.013792 -0.031544 -0.288487 0 0 0 255
-0.006512 0.024187 -0.161859 0 0 0 255
-0.020932 -0.016537 -0.403495 0 0 0 255
0.003352 0.010896 -0.182954 0 0 0 255
0.025720 -0.005154 -0.109522 0 0 0 255
0.013442 0.035957 -0.023356 0 0 0 255
0.002021 0.000230 -0.262781 0 0 0 255
0.020874 -0.002236 -0.128016 0 0 0 255
0.017687 0.032168 -0.018504 0 0 0 255
0.023941 -0.017133 -0.178360 0 0 0 255
-0.003209 -0.009232 -0.346132 0 0 0 255
-0.011233 0.019879 -0.221908 0 0 0 255
-0.036395 -0.004967 -0.361981 0 0 0 255
-0.020245 0.004449 -0.359856 0 0 0 255
0.015107 0.032401 -0.020208 0 0 0 255
0.036002 -0.014573 -0.093801 0 0 0 255
0.009000 0.015056 -0.113286 0 0 0 255
0.006383 0.036388 -0.035836 0 0 0 255
0.013137 0.005325 -0.142624 0 0 0 255
0.030431 0.023275 -0.025004 0 0 0 255
0.019029 0.019379 -0.033660 0 0 0 255
-0.023822 0.031711 -0.199319 0 0 0 255
0.029941 -0.009392 -0.103333 0 0 0 255
-0.005152 -0.031450 -0.370533 0 0 0 255
-0.017782 -0.015568 -0.405445 0 0 0 255
-0.009307 0.005447 -0.307991 0 0 0 255
-0.000207 0.021641 -0.136702 0 0 0 255
-0.015584 0.016246 -0.271655 0 0 0 255
0.011390 0.031861 -0.028156 0 0 0 255
0.017747 -0.011654 -0.201885 0 0 0 255
0.016916 0.025332 -0.024509 0 0 0 255
-0.014824 0.029809 -0.172349 0 0 0 255
-0.011371 0.014099 -0.263551 0 0 0 255
-0.010122 0.014606 -0.252579 0 0 0 255
0.036764 0.004824 -0.034244 0 0 0 255
0.036544 -0.009527 -0.073686 0 0 0 255
-0.000938 -0.023934 -0.365934 0 0 0 255
0.013469 0.007752 -0.125215 0 0 0 255
0.009431 -0.019062 -0.296408 0 0 0 255
-0.017597 0.020374 -0.252715 0 0 0 255
0.004700 -0.030120 -0.339441 0 0 0 255
-0.014661 0.003280 -0.347015 0 0 0 255
0.015526 -0.030536 -0.276686 0 0 0 255
0.004454 0.015545 -0.143369 0 0 0 255
0.005289 -0.013390 -0.306720 0 0 0 255
-0.021416 -0.021204 -0.394830 0 0 0 255
0.002844 0.021575 -0.116192 0 0 0 255
-0.011776 0.014187 -0.265345 0 0 0 255
-0.012192 -0.002747 -0.365100 0 0 0 255
0.005109 -0.038576 -0.323341 0 0 0 255
-0.018342 -0.022521 -0.396951 0 0 0 255
0.018107 -0.008909 -0.185267 0 0 0 255
-0.019484 -0.015217 -0.405395 0 0 0 255
-0.009888 -0.020004 -0.395282 0 0 0 255
-0.023765 0.000610 -0.381012 0 0 0 255
-0.013398 -0.009609 -0.391931 0 0 0 255
-0.007883 0.008040 -0.283077 0 0 0 255
-0.009307 -0.011918 -0.383950 0 0 0 255
0.002111 0.013434 -0.175163 0 0 0 255
-0.018392 0.016816 -0.280880 0 0 0 255
-0.031690 0.018224 -0.304031 0 0 0 255
-0.005320 -0.005339 -0.342147 0 0 0 255
-0.016950 -0.028289 -0.381503 0 0 0 255
0.020564 -0.005764 -0.149427 0 0 0 255
0.031723 0.014644 -0.020488 0 0 0 255
0.029602 0.021594 -0.019454 0 0 0 255
-0.026352 0.007750 -0.354751 0 0 0 255
0.010211 -0.008250 -0.245792 0 0 0 255
0.026466 0.020609 -0.015545 0 0 0 255
-0.010158 -0.025519 -0.390955 0 0 0 255
-0.010235 -0.011951 -0.387385 0 0 0 255
0.024680 0.029676 -0.023127 0 0 0 255
-0.003009 -0.020333 -0.372564 0 0 0 255
0.010130 0.002699 -0.182937 0 0 0 255
0.012591 -0.004158 -0.204149 0 0 0 255
0.029354 -0.012503 -0.120645 0 0 0 255
-0.023939 0.020007 -0.279860 0 0 0 255
-0.002931 -0.001873 -0.310240 0 0 0 255
-0.018769 -0.019561 -0.402052 0 0 0 255
0.008486 0.010796 -0.143975 0 0 0 255
0.005623 0.014630 -0.140697 0 0 0 255
0.007219 -0.004998 -0.252400 0 0 0 255
0.008167 0.034057 -0.034124 0 0 0 255
-0.001263 0.012003 -0.210295 0 0 0 255
0.003447 -0.001672 -0.263097 0 0 0 255
-0.034158 -0.017213 -0.351829 0 0 0 255
-0.002876 -0.035073 -0.355664 0 0 0 255
0.033126 0.013453 -0.022512 0 0 0 255
0.025988 0.016747 -0.020606 0 0 0 255
0.033621 0.001910 -0.043559 0 0 0 255
0.016142 -0.023720 -0.260371 0 0 0 255
-0.012363 0.028347 -0.168918 0 0 0 255
0.027947 0.010713 -0.031098 0 0 0 255
0.000508 0.038890 -0.050431 0 0 0 255
-0.026112 0.008909 -0.349113 0 0 0 255
0.025271 -0.011912 -0.145434 0 0 0 255
0.018425 0.035156 -0.024608 0 0 0 255
-0.008407 0.026901 -0.155429 0 0 0 255
0.031565 -0.004946 -0.075686 0 0 0 255
0.010094 -0.038155 -0.304027 0 0 0 255
0.031145 -0.018491 -0.134160 0 0 0 255
0.018118 0.005183 -0.106427 0 0 0 255
-0.015711 -0.020758 -0.401634 0 0 0 255
0.023428 0.021075 -0.017470 0 0 0 255
-0.014423 -0.005274 -0.382689 0 0 0 255
0.024973 -0.024352 -0.196846 0 0 0 255
0.013219 -0.004034 -0.198305 0 0 0 255
-0.016143 0.020246 -0.246523 0 0 0 255
0.019732 -0.009225 -0.174006 0 0 0 255
0.024870 -0.010229 -0.140316 0 0 0 255
0.032162 0.003817 -0.041116 0 0 0 255
-0.000089 0.035989 -0.060888 0 0 0 255
0.012640 -0.030484 -0.295148 0 0 0 255
0.006707 -0.019399 -0.316288 0 0 0 255
0.007252 0.002390 -0.208131 0 0 0 255
-0.021329 0.014726 -0.305799 0 0 0 255
-0.018576 -0.016048 -0.405353 0 0 0 255
-0.031288 -0.017418 -0.368118 0 0 0 255
-0.024042 -0.019527 -0.392260 0 0 0 255
-0.003242 -0.036134 -0.352632 0 0 0 255
-0.029145 -0.004955 -0.389013 0 0 0 255
0.005508 -0.030721 -0.335180 0 0 0 255
0.030287 -0.011348 -0.109960 0 0 0 255
0.004031 0.036997 -0.042132 0 0 0 255
-0.029633 0.019510 -0.294988 0 0 0 255
-0.030429 -0.012935 -0.382601 0 0 0 255
0.005334 -0.037261 -0.326038 0 0 0 255
0.009291 0.029019 -0.042591 0 0 0 255
0.017442 0.015135 -0.058324 0 0 0 255
-0.005494 0.018656 -0.193693 0 0 0 255
0.006702 0.008487 -0.172913 0 0 0 255
0.002389 -0.006789 -0.298605 0 0 0 255
0.038399 0.004856 -0.035972 0 0 0 255
0.005393 -0.011030 -0.296323 0 0 0 255
-0.031596 0.008530 -0.351004 0 0 0 255
0.019787 0.005848 -0.091329 0 0 0 255
-0.011372 -0.025149 -0.392851 0 0 0 255
-0.017620 -0.001278 -0.377577 0 0 0 255
0.016143 0.017716 -0.053569 0 0 0 255
-0.022560 0.031635 -0.195188 0 0 0 255
-0.021923 -0.032344 -0.346550 0 0 0 255
0.003315 0.022723 -0.106053 0 0 0 255
-0.027604 0.000212 -0.382004 0 0 0 255
-0.017098 -0.032894 -0.360397 0 0 0 255
-0.019051 0.000745 -0.373174 0 0 0 255
0.024560 -0.006231 -0.122690 0 0 0 255
-0.020191 0.025792 -0.226163 0 0 0 255
0.035772 0.011841 -0.027640 0 0 0 255
0.029282 -0.003792 -0.081994 0 0 0 255
0.031283 -0.000029 -0.057174 0 0 0 255
0.009464 -0.036910 -0.309190 0 0 0 255
-0.020145 0.003031 -0.366073 0 0 0 255
0.033532 0.005359 -0.034369 0 0 0 255
-0.007426 0.006775 -0.288356 0 0 0 255
-0.013619 -0.006898 -0.385338 0 0 0 255
-0.009875 0.026830 -0.164797 0 0 0 255
-0.026245 -0.005300 -0.394505 0 0 0 255
-0.022522 -0.022940 -0.387147 0 0 0 255
0.019089 0.001288 -0.121471 0 0 0 255
-0.031310 0.004981 -0.364011 0 0 0 255
0.006595 0.020758 -0.095848 0 0 0 255
0.005214 0.014430 -0.145023 0 0 0 255
-0.029535 0.013896 -0.326715 0 0 0 255
0.006373 -0.011283 -0.290187 0 0 0 255
-0.023994 -0.015076 -0.400054 0 0 0 255
-0.021666 0.030219 -0.201395 0 0 0 255
0.030798 0.000292 -0.057821 0 0 0 255
0.017182 -0.034652 -0.268129 0 0 0 255
0.030603 -0.015988 -0.127607 0 0 0 255
0.001045 0.004453 -0.243769 0 0 0 255
-0.010632 -0.035097 -0.360243 0 0 0 255
-0.030222 0.010510 -0.343421 0 0 0 255
-0.001502 -0.036509 -0.348170 0 0 0 255
-0.008516 -0.009235 -0.373335 0 0 0 255
0.008694 0.023524 -0.068051 0 0 0 255
0.020515 -0.002938 -0.134474 0 0 0 255
0.003610 0.016661 -0.142219 0 0 0 255
-0.012578 0.032476 -0.143006 0 0 0 255
-0.001838 -0.036414 -0.349164 0 0 0 255
0.007957 0.032391 -0.038331 0 0 0 255
-0.020947 -0.013279 -0.404962 0 0 0 255
0.003949 0.039381 -0.039091 0 0 0 255
0.006210 -0.032457 -0.330480 0 0 0 255
-0.018297 -0.016738 -0.405087 0 0 0 255
-0.005563 0.033940 -0.096739 0 0 0 255
0.020642 0.016874 -0.035869 0 0 0 255
0.012021 0.022680 -0.053578 0 0 0 255
